<svg  viewBox="0 0 1326 138" fill="none" xmlns="http://www.w3.org/2000/svg">
<g clip-path="url(#clip0_464_31)">
<path d="M-3.24609 25.1001L1346.75 25.8199" stroke="#9A9898" stroke-opacity="0.07" stroke-width="1.14816"/>
<path d="M-2.03113 47.0601L1347.97 47.7799" stroke="#9A9898" stroke-opacity="0.07" stroke-width="1.14816"/>
<path d="M-1.42456 68.8301L1348.58 69.5499" stroke="#9A9898" stroke-opacity="0.07" stroke-width="1.14816"/>
<path d="M-2.94238 91.05L1347.06 91.7698" stroke="#9A9898" stroke-opacity="0.07" stroke-width="1.14816"/>
<path d="M-2.33496 112.83L1347.67 113.55" stroke="#9A9898" stroke-opacity="0.07" stroke-width="1.14816"/>
<path fill-rule="evenodd" clip-rule="evenodd" d="M0 113V27.0864V25.1863H10.2441V111.1V113H0ZM15.4047 113V27.0864V25.1863H18.6782V68.2176C20.2957 67.398 21.9517 65.7214 23.5692 63.0762C25.2252 60.4682 26.6116 57.7113 27.6899 54.768C28.7683 51.8247 29.346 49.6638 29.423 48.2481C29.9236 51.3776 30.7324 53.8738 31.8107 55.7739C32.9275 57.6367 34.1214 58.978 35.5078 59.7976C36.8943 60.58 38.2422 60.9898 39.6286 60.9898C43.0561 60.9898 45.2128 59.4996 46.1371 56.4818C47.0614 53.464 47.5235 49.7756 47.5235 45.4166C47.5235 43.442 47.485 41.6537 47.3695 40.0889C47.2539 38.5241 47.0228 36.9221 46.5992 35.3201C46.2141 33.718 45.5594 32.265 44.6351 30.9983C43.6723 29.7316 42.4399 28.8374 40.8995 28.3903C39.5131 28.0178 38.1266 27.8315 36.7787 27.8315C35.5463 27.8315 34.5065 28.055 33.6978 28.4649C32.8505 28.8747 32.3884 29.508 32.3114 30.2532C32.5039 30.9238 32.9661 31.7062 33.7748 32.6376C34.5836 33.5318 35.1227 34.2396 35.4308 34.6867C35.7389 35.1338 35.893 35.7671 35.893 36.624C35.893 38.1516 35.3538 39.4183 34.2755 40.4615C33.1971 41.5047 31.7722 42.0635 29.9621 42.0635C28.1906 42.0635 26.7272 41.4301 25.6488 40.2007C24.5705 38.934 23.9928 37.4437 23.9158 35.7671C24.0698 33.4945 24.9171 31.5199 26.4191 29.8806C27.9595 28.2786 29.8466 27.0491 32.1188 26.2295C34.391 25.4098 36.6632 25 38.9739 25C41.5927 25 44.096 25.4471 46.4837 26.3412C48.9099 27.2354 51.0666 28.5766 52.9151 30.2904C54.8022 32.0415 56.3042 34.1651 57.3825 36.6986C58.4608 39.1947 59 42.0635 59 45.2303C59 49.6266 58.1527 53.2777 56.4967 56.1465C54.8022 59.0525 52.6456 61.2134 50.0268 62.5546C47.3695 63.8958 44.5581 64.641 41.5927 64.7155C38.5117 64.5292 35.9315 63.8586 33.8903 62.7036L29.8081 69.1118L33.8903 75.4826C36.7017 74.3649 39.4745 73.8061 42.1704 73.8061C45.5979 73.8061 48.5633 74.7748 51.1436 76.6376C53.6854 78.5377 55.6495 80.9594 56.9974 83.9771C58.3068 86.9949 59 90.0872 59 93.2913C59 96.7934 58.1913 100.072 56.5738 103.09C54.9563 106.108 52.6841 108.492 49.7572 110.318C46.7918 112.106 43.4413 113 39.6286 113C35.1997 112.814 31.5026 111.808 28.5372 109.945C25.5718 108.119 24.1084 105.362 24.1084 101.749C24.2624 99.9975 24.9171 98.6562 26.0725 97.6503C27.2278 96.6071 28.4602 96.0855 29.8081 95.9737C31.4256 95.9737 32.889 96.5326 34.1599 97.6503C35.4308 98.7307 36.0855 100.109 36.0855 101.749C36.0855 102.382 35.9315 102.978 35.6234 103.537C35.3153 104.058 34.8916 104.692 34.2755 105.437C33.6593 106.145 33.2356 106.666 33.0046 107.002C32.7735 107.374 32.5809 107.784 32.5039 108.306C32.5039 108.976 32.9275 109.535 33.8133 109.982C34.6606 110.429 35.7774 110.69 37.1253 110.802C41.3616 110.616 44.173 108.865 45.5979 105.623C46.9843 102.307 47.6775 98.2464 47.6775 93.2913C47.6775 89.0068 47.1769 85.2439 46.1756 82.0398C45.1743 78.7985 43.0176 77.1964 39.6286 77.1964C36.6247 77.1964 34.314 78.4259 32.6965 80.9594C31.079 83.4555 30.0392 86.3988 29.577 89.7892C29.0764 86.9204 28.3061 84.1634 27.1893 81.5182C26.0725 78.8357 24.8016 76.4886 23.2996 74.4767C21.8747 72.5021 20.2957 70.9001 18.6782 69.7824V113H15.4047Z" fill="#9A9898" fill-opacity="0.07" stroke="#9A9898" stroke-opacity="0.07" stroke-width="0.15522"/>
</g>
<defs>
<clipPath id="clip0_464_31">
<rect width="1326" height="138" fill="white"/>
</clipPath>
</defs>
</svg>
