<svg viewBox="0 0 1326 138" fill="none" xmlns="http://www.w3.org/2000/svg">
<g clip-path="url(#clip0_464_46)">
<path d="M-3.24609 25.1001L1346.75 25.8199" stroke="#9A9898" stroke-opacity="0.07" stroke-width="1.14816"/>
<path d="M-2.03113 47.0601L1347.97 47.7799" stroke="#9A9898" stroke-opacity="0.07" stroke-width="1.14816"/>
<path d="M-1.42456 68.8301L1348.58 69.5499" stroke="#9A9898" stroke-opacity="0.07" stroke-width="1.14816"/>
<path d="M-2.94238 91.05L1347.06 91.7698" stroke="#9A9898" stroke-opacity="0.07" stroke-width="1.14816"/>
<path d="M-2.33496 112.83L1347.67 113.55" stroke="#9A9898" stroke-opacity="0.07" stroke-width="1.14816"/>
<path fill-rule="evenodd" clip-rule="evenodd" d="M6.44861 56.3002C8.15737 58.8932 11.185 60.6145 14.6317 60.6145C19.9657 60.6145 24.2868 56.4973 24.2868 51.4164C24.2868 46.3355 19.9657 42.2182 14.6317 42.2182C11.6551 42.9497 10.4418 43.8038 9.77505 41.7058C12.4092 32.1353 16.6502 29.954 23.9224 29.954C33.5811 29.954 38.1317 40.5056 38.1317 55.1394C35.4611 88.7214 7.95334 105.655 2 110.841C2.83434 113.149 2.79062 113.066 2.79062 112.956C30.6008 97.7706 51.248 76.9434 51.248 56.4535C51.248 40.1727 42.6642 25.5214 23.7403 26.012C12.3728 26.012 -1.21714 41.1977 6.44861 56.3002V56.3002ZM54.5271 40.4662C54.5271 43.6111 56.6476 46.1603 59.2636 46.1603C61.8795 46.1603 64 43.6111 64 40.4662C64 37.3213 61.8795 34.7721 59.2636 34.7721C56.6476 34.7721 54.5271 37.3213 54.5271 40.4662ZM54.5271 64.5566C54.5271 67.7015 56.6476 70.2507 59.2636 70.2507C61.8795 70.2507 64 67.7015 64 64.5566C64 61.4117 61.8795 58.8625 59.2636 58.8625C56.6476 58.8625 54.5271 61.4117 54.5271 64.5566Z" fill="#9A9898" fill-opacity="0.07" stroke="#9A9898" stroke-opacity="0.07"/>
</g>
<defs>
<clipPath id="clip0_464_46">
<rect width="1326" height="138" fill="white"/>
</clipPath>
</defs>
</svg>
