<svg  viewBox="0 0 1378 272" fill="none" xmlns="http://www.w3.org/2000/svg">
<g opacity="0.5" clip-path="url(#clip0_441_19)">
<g filter="url(#filter0_f_441_19)">
<path d="M-524.401 319.975L370.065 497L1362.16 441.771L1502 3.13297L1290.92 -314H48.163L-1165.57 -177.089L-1250 79.8728L-524.401 319.975Z" fill="url(#paint0_radial_441_19)"/>
<path d="M-524.401 319.975L370.065 497L1362.16 441.771L1502 3.13297L1290.92 -314H48.163L-1165.57 -177.089L-1250 79.8728L-524.401 319.975Z" stroke="black" stroke-width="0.88"/>
</g>
<g filter="url(#filter1_f_441_19)">
<path d="M290.333 -115.462L-48 129.281L57.5556 400.736L895.889 439L1502 381.244V41.2023L1240.33 -290.897L749.222 -314L290.333 -115.462Z" fill="url(#paint1_radial_441_19)"/>
<path d="M290.333 -115.462L-48 129.281L57.5556 400.736L895.889 439L1502 381.244V41.2023L1240.33 -290.897L749.222 -314L290.333 -115.462Z" stroke="black" stroke-width="0.88"/>
</g>
<g filter="url(#filter2_f_441_19)">
<path d="M882.628 220.687L1348 -48.4324L1202.81 -346.925L49.696 -389L-784 -325.491V48.419L-424.082 413.596L251.434 439L882.628 220.687Z" fill="url(#paint2_radial_441_19)"/>
<path d="M882.628 220.687L1348 -48.4324L1202.81 -346.925L49.696 -389L-784 -325.491V48.419L-424.082 413.596L251.434 439L882.628 220.687Z" stroke="black" stroke-width="0.88"/>
</g>
</g>
<defs>
<filter id="filter0_f_441_19" x="-1338.56" y="-402.44" width="2929.04" height="987.882" filterUnits="userSpaceOnUse" color-interpolation-filters="sRGB">
<feFlood flood-opacity="0" result="BackgroundImageFix"/>
<feBlend mode="normal" in="SourceGraphic" in2="BackgroundImageFix" result="shape"/>
<feGaussianBlur stdDeviation="44" result="effect1_foregroundBlur_441_19"/>
</filter>
<filter id="filter1_f_441_19" x="-136.533" y="-402.444" width="1726.97" height="929.885" filterUnits="userSpaceOnUse" color-interpolation-filters="sRGB">
<feFlood flood-opacity="0" result="BackgroundImageFix"/>
<feBlend mode="normal" in="SourceGraphic" in2="BackgroundImageFix" result="shape"/>
<feGaussianBlur stdDeviation="44" result="effect1_foregroundBlur_441_19"/>
</filter>
<filter id="filter2_f_441_19" x="-872.44" y="-477.441" width="2309.01" height="1004.88" filterUnits="userSpaceOnUse" color-interpolation-filters="sRGB">
<feFlood flood-opacity="0" result="BackgroundImageFix"/>
<feBlend mode="normal" in="SourceGraphic" in2="BackgroundImageFix" result="shape"/>
<feGaussianBlur stdDeviation="44" result="effect1_foregroundBlur_441_19"/>
</filter>
<radialGradient id="paint0_radial_441_19" cx="0" cy="0" r="1" gradientUnits="userSpaceOnUse" gradientTransform="translate(126 91.5) rotate(2.66724) scale(2775.22 820.599)">
<stop stop-color="#8742DF"/>
<stop offset="0.950052" stop-opacity="0.73"/>
</radialGradient>
<radialGradient id="paint1_radial_441_19" cx="0" cy="0" r="1" gradientUnits="userSpaceOnUse" gradientTransform="translate(727 62.5) rotate(116.786) scale(580.373 1139.13)">
<stop stop-color="#FFFAEA"/>
<stop offset="1" stop-color="#C66103" stop-opacity="0.68"/>
</radialGradient>
<radialGradient id="paint2_radial_441_19" cx="0" cy="0" r="1" gradientUnits="userSpaceOnUse" gradientTransform="translate(282 25) rotate(-90) scale(414 1066)">
<stop stop-color="#0C94F5" stop-opacity="0.49"/>
<stop offset="1" stop-color="#04434B" stop-opacity="0.83"/>
</radialGradient>

</defs>
</svg>
