<svg viewBox="0 0 1326 138" fill="none" xmlns="http://www.w3.org/2000/svg">
<g clip-path="url(#clip0_458_33)">
<path d="M-3.24614 18.1L1346.75 18.8198" stroke="#9A9898" stroke-opacity="0.07" stroke-width="1.14816"/>
<path d="M-2.03122 40.0599L1347.97 40.7798" stroke="#9A9898" stroke-opacity="0.07" stroke-width="1.14816"/>
<path d="M-1.42461 61.83L1348.58 62.5497" stroke="#9A9898" stroke-opacity="0.07" stroke-width="1.14816"/>
<path d="M-2.94241 84.05L1347.06 84.7698" stroke="#9A9898" stroke-opacity="0.07" stroke-width="1.14816"/>
<path d="M-2.33496 105.83L1347.67 106.55" stroke="#9A9898" stroke-opacity="0.07" stroke-width="1.14816"/>
<path d="M21.9695 128.878C21.9894 136.667 39.0356 135.677 38.9785 122.834C39.001 110.322 22.6933 40.3099 22.5119 26.9179C22.3202 16.2909 28.0648 4.38018 32.986 4.50984C36.8848 4.63949 40.5482 13.5883 40.528 24.7266C40.824 60.7474 9.70727 58.4191 9.70727 83.0331C9.70727 98.9428 22.7345 103.145 29.2486 103.145C51.3068 102.995 47.6053 76.1293 33.5417 76.1293C25.2514 75.8289 17.9975 87.2354 28.9525 96.6909C10.4478 88.4364 20.3661 68.4751 35.0221 68.3252C54.5634 68.4752 57.9683 104.796 29.2486 104.946C12.0754 105.096 4.82214 89.7871 4.96999 77.7807C4.96999 54.6674 38.5752 41.3103 38.1308 21.7988C38.1308 9.49185 25.5471 15.045 25.2514 34.8562C25.5476 47.1632 41.24 112.15 41.0922 122.206C41.0922 142.917 14.8889 136.164 14.8889 125.658C15.0369 110.649 30.2853 121.305 25.548 121.755C21.8469 128.359 21.9693 128.874 21.9693 128.874L21.9695 128.878Z" fill="#9A9898" fill-opacity="0.07" stroke="#9A9898" stroke-opacity="0.07" stroke-width="0.913244"/>
<path d="M29.0623 122.359C29.0623 125.843 26.1961 128.671 22.6649 128.671C19.1336 128.671 16.2673 125.843 16.2673 122.359C16.2673 118.874 19.1336 116.045 22.6649 116.045C26.1961 116.045 29.0623 118.874 29.0623 122.359Z" fill="#9A9898" fill-opacity="0.07" stroke="#9A9898" stroke-opacity="0.07" stroke-width="0.913244"/>
<path d="M36.0099 101.752H38.1074V103.821H36.0099V101.752Z" fill="#9A9898" fill-opacity="0.07"/>
<path d="M29.8877 69.2778H32.552V76.0019H29.8877V69.2778Z" fill="#9A9898" fill-opacity="0.07"/>
<path d="M25.1713 44.3024L26.4347 44.0813L28.2127 55.9773L26.9493 56.1984L25.1713 44.3024Z" fill="#9A9898" fill-opacity="0.07"/>
</g>
<defs>
<clipPath id="clip0_458_33">
<rect width="1326" height="138" fill="white"/>
</clipPath>
</defs>
</svg>
